<mxfile host="app.diagrams.net" modified="2021-03-03T04:14:41.737Z" agent="5.0 (Windows)" etag="BKTUzRl99EMV7LVVnJ29" version="14.4.3" type="github">
  <diagram id="CZBquXkiIheLEfTVI9Rj" name="Page-1">
    <mxGraphModel dx="1422" dy="791" grid="1" gridSize="10" guides="1" tooltips="1" connect="1" arrows="1" fold="1" page="1" pageScale="1" pageWidth="1200" pageHeight="1920" math="0" shadow="0">
      <root>
        <mxCell id="0" />
        <mxCell id="1" parent="0" />
        <mxCell id="5RfzwFyHqRgImurdjASv-3" value="" style="edgeStyle=orthogonalEdgeStyle;rounded=0;orthogonalLoop=1;jettySize=auto;html=1;" edge="1" parent="1" source="5RfzwFyHqRgImurdjASv-1">
          <mxGeometry relative="1" as="geometry">
            <mxPoint x="120" y="210" as="targetPoint" />
          </mxGeometry>
        </mxCell>
        <mxCell id="5RfzwFyHqRgImurdjASv-1" value="Bolus testing Start" style="ellipse;whiteSpace=wrap;html=1;" vertex="1" parent="1">
          <mxGeometry x="60" y="40" width="120" height="80" as="geometry" />
        </mxCell>
        <mxCell id="5RfzwFyHqRgImurdjASv-10" value="" style="edgeStyle=orthogonalEdgeStyle;rounded=0;orthogonalLoop=1;jettySize=auto;html=1;" edge="1" parent="1" source="5RfzwFyHqRgImurdjASv-4" target="5RfzwFyHqRgImurdjASv-9">
          <mxGeometry relative="1" as="geometry" />
        </mxCell>
        <mxCell id="5RfzwFyHqRgImurdjASv-16" value="" style="edgeStyle=orthogonalEdgeStyle;rounded=0;orthogonalLoop=1;jettySize=auto;html=1;" edge="1" parent="1" source="5RfzwFyHqRgImurdjASv-4" target="5RfzwFyHqRgImurdjASv-15">
          <mxGeometry relative="1" as="geometry" />
        </mxCell>
        <mxCell id="5RfzwFyHqRgImurdjASv-4" value="Delivery Timer triggered" style="rounded=0;whiteSpace=wrap;html=1;" vertex="1" parent="1">
          <mxGeometry x="60" y="210" width="120" height="60" as="geometry" />
        </mxCell>
        <mxCell id="5RfzwFyHqRgImurdjASv-47" value="" style="edgeStyle=orthogonalEdgeStyle;rounded=0;orthogonalLoop=1;jettySize=auto;html=1;" edge="1" parent="1" source="5RfzwFyHqRgImurdjASv-48" target="5RfzwFyHqRgImurdjASv-17">
          <mxGeometry relative="1" as="geometry" />
        </mxCell>
        <mxCell id="5RfzwFyHqRgImurdjASv-9" value="Send HB" style="whiteSpace=wrap;html=1;" vertex="1" parent="1">
          <mxGeometry x="60" y="330" width="120" height="60" as="geometry" />
        </mxCell>
        <mxCell id="5RfzwFyHqRgImurdjASv-14" value="" style="edgeStyle=orthogonalEdgeStyle;rounded=0;orthogonalLoop=1;jettySize=auto;html=1;" edge="1" parent="1" source="5RfzwFyHqRgImurdjASv-11" target="5RfzwFyHqRgImurdjASv-13">
          <mxGeometry relative="1" as="geometry" />
        </mxCell>
        <mxCell id="5RfzwFyHqRgImurdjASv-11" value="Recieve HB" style="whiteSpace=wrap;html=1;" vertex="1" parent="1">
          <mxGeometry x="25" y="660" width="120" height="60" as="geometry" />
        </mxCell>
        <mxCell id="5RfzwFyHqRgImurdjASv-44" value="" style="edgeStyle=orthogonalEdgeStyle;rounded=0;orthogonalLoop=1;jettySize=auto;html=1;" edge="1" parent="1" source="5RfzwFyHqRgImurdjASv-13" target="5RfzwFyHqRgImurdjASv-43">
          <mxGeometry relative="1" as="geometry" />
        </mxCell>
        <mxCell id="5RfzwFyHqRgImurdjASv-13" value="Send Insulon command" style="whiteSpace=wrap;html=1;" vertex="1" parent="1">
          <mxGeometry x="25" y="830" width="120" height="60" as="geometry" />
        </mxCell>
        <mxCell id="5RfzwFyHqRgImurdjASv-30" value="" style="edgeStyle=orthogonalEdgeStyle;rounded=0;orthogonalLoop=1;jettySize=auto;html=1;" edge="1" parent="1" source="5RfzwFyHqRgImurdjASv-15" target="5RfzwFyHqRgImurdjASv-26">
          <mxGeometry relative="1" as="geometry">
            <mxPoint x="720" y="350" as="targetPoint" />
          </mxGeometry>
        </mxCell>
        <mxCell id="5RfzwFyHqRgImurdjASv-15" value="Timer Reset, continues ticking" style="whiteSpace=wrap;html=1;rounded=0;" vertex="1" parent="1">
          <mxGeometry x="660" y="210" width="120" height="60" as="geometry" />
        </mxCell>
        <mxCell id="5RfzwFyHqRgImurdjASv-18" value="" style="edgeStyle=orthogonalEdgeStyle;rounded=0;orthogonalLoop=1;jettySize=auto;html=1;" edge="1" parent="1" source="5RfzwFyHqRgImurdjASv-17" target="5RfzwFyHqRgImurdjASv-11">
          <mxGeometry relative="1" as="geometry" />
        </mxCell>
        <mxCell id="5RfzwFyHqRgImurdjASv-21" value="" style="edgeStyle=orthogonalEdgeStyle;rounded=0;orthogonalLoop=1;jettySize=auto;html=1;" edge="1" parent="1" source="5RfzwFyHqRgImurdjASv-17" target="5RfzwFyHqRgImurdjASv-20">
          <mxGeometry relative="1" as="geometry" />
        </mxCell>
        <mxCell id="5RfzwFyHqRgImurdjASv-17" value="Timeout?" style="rhombus;whiteSpace=wrap;html=1;" vertex="1" parent="1">
          <mxGeometry x="45" y="520" width="80" height="80" as="geometry" />
        </mxCell>
        <mxCell id="5RfzwFyHqRgImurdjASv-20" value="&lt;div&gt;Stop heartbeat,delivery timer&lt;/div&gt;&lt;div&gt; begin timeout protocol&lt;/div&gt;" style="whiteSpace=wrap;html=1;" vertex="1" parent="1">
          <mxGeometry x="280" y="510" width="130" height="100" as="geometry" />
        </mxCell>
        <mxCell id="5RfzwFyHqRgImurdjASv-22" value="yes" style="text;html=1;align=center;verticalAlign=middle;resizable=0;points=[];autosize=1;" vertex="1" parent="1">
          <mxGeometry x="170" y="540" width="30" height="20" as="geometry" />
        </mxCell>
        <mxCell id="5RfzwFyHqRgImurdjASv-23" value="no" style="text;html=1;align=center;verticalAlign=middle;resizable=0;points=[];autosize=1;" vertex="1" parent="1">
          <mxGeometry x="90" y="610" width="30" height="20" as="geometry" />
        </mxCell>
        <mxCell id="5RfzwFyHqRgImurdjASv-28" value="" style="edgeStyle=orthogonalEdgeStyle;rounded=0;orthogonalLoop=1;jettySize=auto;html=1;" edge="1" parent="1" source="5RfzwFyHqRgImurdjASv-24" target="5RfzwFyHqRgImurdjASv-27">
          <mxGeometry relative="1" as="geometry" />
        </mxCell>
        <mxCell id="5RfzwFyHqRgImurdjASv-24" value="Recieve IN" style="whiteSpace=wrap;html=1;" vertex="1" parent="1">
          <mxGeometry x="320" y="830" width="120" height="60" as="geometry" />
        </mxCell>
        <mxCell id="5RfzwFyHqRgImurdjASv-32" value="" style="edgeStyle=orthogonalEdgeStyle;rounded=0;orthogonalLoop=1;jettySize=auto;html=1;entryX=0.5;entryY=0;entryDx=0;entryDy=0;" edge="1" parent="1" source="5RfzwFyHqRgImurdjASv-26" target="5RfzwFyHqRgImurdjASv-33">
          <mxGeometry relative="1" as="geometry">
            <mxPoint x="720" y="560" as="targetPoint" />
          </mxGeometry>
        </mxCell>
        <mxCell id="5RfzwFyHqRgImurdjASv-26" value="Delivery timer Timeout" style="rounded=0;whiteSpace=wrap;html=1;" vertex="1" parent="1">
          <mxGeometry x="660" y="420" width="120" height="60" as="geometry" />
        </mxCell>
        <mxCell id="5RfzwFyHqRgImurdjASv-37" value="" style="edgeStyle=orthogonalEdgeStyle;rounded=0;orthogonalLoop=1;jettySize=auto;html=1;" edge="1" parent="1" source="5RfzwFyHqRgImurdjASv-27" target="5RfzwFyHqRgImurdjASv-34">
          <mxGeometry relative="1" as="geometry" />
        </mxCell>
        <mxCell id="5RfzwFyHqRgImurdjASv-27" value="Insulindelivery complete flag raised" style="whiteSpace=wrap;html=1;" vertex="1" parent="1">
          <mxGeometry x="480" y="830" width="120" height="60" as="geometry" />
        </mxCell>
        <mxCell id="5RfzwFyHqRgImurdjASv-35" value="" style="edgeStyle=orthogonalEdgeStyle;rounded=0;orthogonalLoop=1;jettySize=auto;html=1;" edge="1" parent="1" source="5RfzwFyHqRgImurdjASv-33" target="5RfzwFyHqRgImurdjASv-34">
          <mxGeometry relative="1" as="geometry" />
        </mxCell>
        <mxCell id="5RfzwFyHqRgImurdjASv-41" value="" style="edgeStyle=orthogonalEdgeStyle;rounded=0;orthogonalLoop=1;jettySize=auto;html=1;" edge="1" parent="1" source="5RfzwFyHqRgImurdjASv-33" target="5RfzwFyHqRgImurdjASv-40">
          <mxGeometry relative="1" as="geometry" />
        </mxCell>
        <mxCell id="5RfzwFyHqRgImurdjASv-33" value="Is Insulindelivery&amp;nbsp; flag raised" style="rhombus;whiteSpace=wrap;html=1;" vertex="1" parent="1">
          <mxGeometry x="635" y="510" width="170" height="140" as="geometry" />
        </mxCell>
        <mxCell id="5RfzwFyHqRgImurdjASv-39" value="" style="edgeStyle=orthogonalEdgeStyle;rounded=0;orthogonalLoop=1;jettySize=auto;html=1;entryX=0.75;entryY=0;entryDx=0;entryDy=0;" edge="1" parent="1" source="5RfzwFyHqRgImurdjASv-34" target="5RfzwFyHqRgImurdjASv-9">
          <mxGeometry relative="1" as="geometry">
            <mxPoint x="120" y="155" as="targetPoint" />
            <Array as="points">
              <mxPoint x="870" y="850" />
              <mxPoint x="870" y="300" />
              <mxPoint x="150" y="300" />
            </Array>
          </mxGeometry>
        </mxCell>
        <mxCell id="5RfzwFyHqRgImurdjASv-34" value="Next delivery starts" style="whiteSpace=wrap;html=1;" vertex="1" parent="1">
          <mxGeometry x="660" y="830" width="120" height="60" as="geometry" />
        </mxCell>
        <mxCell id="5RfzwFyHqRgImurdjASv-36" value="yes" style="text;html=1;align=center;verticalAlign=middle;resizable=0;points=[];autosize=1;" vertex="1" parent="1">
          <mxGeometry x="715" y="700" width="30" height="20" as="geometry" />
        </mxCell>
        <mxCell id="5RfzwFyHqRgImurdjASv-40" value="Skip delivery" style="whiteSpace=wrap;html=1;" vertex="1" parent="1">
          <mxGeometry x="910" y="550" width="120" height="60" as="geometry" />
        </mxCell>
        <mxCell id="5RfzwFyHqRgImurdjASv-42" value="no" style="text;html=1;align=center;verticalAlign=middle;resizable=0;points=[];autosize=1;" vertex="1" parent="1">
          <mxGeometry x="835" y="560" width="30" height="20" as="geometry" />
        </mxCell>
        <mxCell id="5RfzwFyHqRgImurdjASv-45" value="" style="edgeStyle=orthogonalEdgeStyle;rounded=0;orthogonalLoop=1;jettySize=auto;html=1;" edge="1" parent="1" source="5RfzwFyHqRgImurdjASv-43" target="5RfzwFyHqRgImurdjASv-24">
          <mxGeometry relative="1" as="geometry" />
        </mxCell>
        <mxCell id="5RfzwFyHqRgImurdjASv-43" value="Sent insulin signal" style="whiteSpace=wrap;html=1;" vertex="1" parent="1">
          <mxGeometry x="175" y="830" width="120" height="60" as="geometry" />
        </mxCell>
        <mxCell id="5RfzwFyHqRgImurdjASv-48" value="Sent HB Signal, begin timeout timer" style="whiteSpace=wrap;html=1;" vertex="1" parent="1">
          <mxGeometry x="60" y="420" width="120" height="60" as="geometry" />
        </mxCell>
        <mxCell id="5RfzwFyHqRgImurdjASv-49" value="" style="edgeStyle=orthogonalEdgeStyle;rounded=0;orthogonalLoop=1;jettySize=auto;html=1;" edge="1" parent="1" source="5RfzwFyHqRgImurdjASv-9" target="5RfzwFyHqRgImurdjASv-48">
          <mxGeometry relative="1" as="geometry">
            <mxPoint x="120" y="390" as="sourcePoint" />
            <mxPoint x="85" y="500" as="targetPoint" />
          </mxGeometry>
        </mxCell>
        <mxCell id="5RfzwFyHqRgImurdjASv-50" value="Start delivery" style="rounded=0;whiteSpace=wrap;html=1;" vertex="1" parent="1">
          <mxGeometry x="285" y="130" width="120" height="60" as="geometry" />
        </mxCell>
      </root>
    </mxGraphModel>
  </diagram>
</mxfile>
